<svg width="180" height="183" viewBox="0 0 180 183" fill="none" xmlns="http://www.w3.org/2000/svg">
<g filter="url(#filter0_d_13_54)">
<path d="M130.486 120.312C129.255 109.223 124.294 98.8814 116.414 90.9821C108.535 83.0828 98.2057 78.095 87.1197 76.8364C76.0337 75.5778 64.8491 78.1231 55.3995 84.055C45.9499 89.9869 38.7961 98.9534 35.1109 109.484C26.6665 110.176 18.8168 114.106 13.2049 120.454C7.59302 126.802 4.654 135.074 5.00308 143.539C5.35216 152.005 8.96226 160.007 15.0777 165.871C21.1932 171.735 29.3399 175.006 37.8125 175H130.781C138.033 175 144.988 172.119 150.116 166.991C155.244 161.863 158.125 154.908 158.125 147.656C158.125 140.404 155.244 133.449 150.116 128.321C144.988 123.193 138.033 120.312 130.781 120.312H130.486Z" fill="#E6ECF2"/>
<path d="M119.441 29.4469C120.069 28.5061 120.391 27.3936 120.36 26.2625C120.33 25.1315 119.95 24.0377 119.272 23.1318C118.594 22.2259 117.652 21.5526 116.575 21.2047C115.499 20.8567 114.341 20.8513 113.261 21.1891C101.936 24.7356 92.2318 32.1751 85.866 42.1903C79.5002 52.2055 76.8836 64.1501 78.4797 75.9094C82.3919 76.2898 86.257 77.0555 90.0188 78.1953C88.3298 70.9974 88.6999 63.4695 91.0866 56.4719C93.4732 49.4743 97.7803 43.2892 103.516 38.6234C101.621 45.9277 101.397 53.5649 102.859 60.9679C104.321 68.3708 107.432 75.3493 111.961 81.385C116.49 87.4208 122.32 92.3587 129.019 95.8321C135.718 99.3055 143.114 101.225 150.656 101.448C143.489 106.43 134.861 108.871 126.145 108.383C127.917 111.85 129.372 115.514 130.455 119.32C138.352 118.984 146.058 116.788 152.945 112.911C159.833 109.033 165.708 103.585 170.092 97.0078C170.721 96.0671 171.042 94.9545 171.012 93.8235C170.982 92.6924 170.602 91.5986 169.924 90.6927C169.246 89.7869 168.304 89.1135 167.227 88.7656C166.15 88.4177 164.992 88.4122 163.913 88.75C156.155 91.1851 147.832 91.1538 140.093 88.6605C132.354 86.1671 125.578 81.3345 120.701 74.8287C115.823 68.323 113.084 60.4644 112.86 52.3364C112.636 44.2084 114.928 36.2111 119.441 29.4469Z" fill="#FDFFAE"/>
</g>
<defs>
<filter id="filter0_d_13_54" x="0.975193" y="0" width="183.025" height="183" filterUnits="userSpaceOnUse" color-interpolation-filters="sRGB">
<feFlood flood-opacity="0" result="BackgroundImageFix"/>
<feColorMatrix in="SourceAlpha" type="matrix" values="0 0 0 0 0 0 0 0 0 0 0 0 0 0 0 0 0 0 127 0" result="hardAlpha"/>
<feOffset dy="4"/>
<feGaussianBlur stdDeviation="2"/>
<feComposite in2="hardAlpha" operator="out"/>
<feColorMatrix type="matrix" values="0 0 0 0 0 0 0 0 0 0 0 0 0 0 0 0 0 0 0.25 0"/>
<feBlend mode="normal" in2="BackgroundImageFix" result="effect1_dropShadow_13_54"/>
<feBlend mode="normal" in="SourceGraphic" in2="effect1_dropShadow_13_54" result="shape"/>
</filter>
</defs>
</svg>
