<svg width="180" height="183" viewBox="0 0 180 183" fill="none" xmlns="http://www.w3.org/2000/svg">
<g filter="url(#filter0_d_15_127)">
<path d="M130.486 120.312C129.255 109.223 124.294 98.8814 116.414 90.9821C108.535 83.0828 98.2057 78.095 87.1197 76.8363C76.0337 75.5777 64.8491 78.123 55.3995 84.0549C45.9499 89.9868 38.7961 98.9533 35.1109 109.484C26.6665 110.176 18.8168 114.106 13.2049 120.454C7.59302 126.802 4.654 135.074 5.00308 143.539C5.35216 152.005 8.96226 160.007 15.0777 165.871C21.1932 171.735 29.3399 175.006 37.8125 175H130.781C138.033 175 144.988 172.119 150.116 166.991C155.244 161.863 158.125 154.908 158.125 147.656C158.125 140.404 155.244 133.449 150.116 128.321C144.988 123.193 138.033 120.312 130.781 120.312H130.486Z" fill="white"/>
<path d="M111.844 27.4062C111.844 25.9558 111.268 24.5648 110.242 23.5393C109.216 22.5137 107.825 21.9375 106.375 21.9375C104.925 21.9375 103.534 22.5137 102.508 23.5393C101.482 24.5648 100.906 25.9558 100.906 27.4062V38.3438C100.906 39.7942 101.482 41.1852 102.508 42.2107C103.534 43.2363 104.925 43.8125 106.375 43.8125C107.825 43.8125 109.216 43.2363 110.242 42.2107C111.268 41.1852 111.844 39.7942 111.844 38.3438V27.4062ZM152.783 48.8875C153.305 48.383 153.722 47.7796 154.008 47.1124C154.295 46.4452 154.446 45.7275 154.452 45.0014C154.458 44.2753 154.32 43.5552 154.045 42.8831C153.77 42.211 153.364 41.6004 152.851 41.0869C152.337 40.5734 151.727 40.1674 151.054 39.8924C150.382 39.6174 149.662 39.479 148.936 39.4853C148.21 39.4917 147.492 39.6425 146.825 39.9291C146.158 40.2157 145.554 40.6324 145.05 41.1547L137.306 48.8875C136.279 49.9144 135.702 51.3071 135.702 52.7594C135.702 54.2116 136.279 55.6044 137.306 56.6312C138.333 57.6581 139.726 58.235 141.178 58.235C142.63 58.235 144.023 57.6581 145.05 56.6312L152.783 48.8875ZM67.7 41.1547C66.6686 40.1585 65.2872 39.6073 63.8533 39.6198C62.4194 39.6322 61.0478 40.2074 60.0338 41.2213C59.0198 42.2353 58.4447 43.6069 58.4322 45.0408C58.4198 46.4747 58.971 47.8561 59.9672 48.8875L67.7 56.6312C68.2085 57.1397 68.8121 57.543 69.4764 57.8182C70.1408 58.0934 70.8528 58.235 71.5719 58.235C72.2909 58.235 73.003 58.0934 73.6673 57.8182C74.3317 57.543 74.9353 57.1397 75.4437 56.6312C75.9522 56.1228 76.3555 55.5192 76.6307 54.8548C76.9059 54.1905 77.0475 53.4784 77.0475 52.7594C77.0475 52.0403 76.9059 51.3283 76.6307 50.6639C76.3555 49.9996 75.9522 49.396 75.4437 48.8875L67.7 41.1547ZM86.6656 78.0578C88.025 75.2407 89.9727 72.748 92.3774 70.7476C94.7821 68.7473 97.5877 67.2859 100.605 66.462C103.623 65.6382 106.782 65.471 109.869 65.9719C112.957 66.4727 115.901 67.6298 118.503 69.3652C121.106 71.1007 123.306 73.374 124.955 76.0319C126.604 78.6898 127.664 81.6704 128.063 84.7727C128.462 87.875 128.191 91.0269 127.269 94.0157C126.346 97.0045 124.794 99.7607 122.716 102.098C124.892 105.172 126.784 108.464 128.359 111.92C132.066 108.571 134.959 104.42 136.818 99.7832C138.677 95.1464 139.452 90.1463 139.085 85.1642C138.719 80.1822 137.219 75.3496 134.701 71.035C132.183 66.7205 128.713 63.0378 124.556 60.2677C120.399 57.4977 115.664 55.7134 110.713 55.051C105.761 54.3886 100.724 54.8654 95.9847 56.4453C91.2456 58.0251 86.9297 60.6661 83.3661 64.1671C79.8026 67.668 77.0854 71.9364 75.4219 76.6469C79.2719 76.7672 83.0344 77.2484 86.6656 78.0578ZM135.709 122.617C142.272 124.969 148.014 129.07 152.356 134.342C152.952 133.86 153.439 133.258 153.787 132.575C154.135 131.893 154.336 131.144 154.376 130.379C154.416 129.614 154.295 128.849 154.021 128.134C153.746 127.418 153.324 126.769 152.783 126.227L145.05 118.494C144.27 117.709 143.271 117.18 142.185 116.975C141.098 116.77 139.975 116.9 138.963 117.346C137.951 117.793 137.099 118.536 136.518 119.477C135.937 120.418 135.655 121.513 135.709 122.617ZM155.594 82.0938C154.143 82.0938 152.752 82.6699 151.727 83.6955C150.701 84.7211 150.125 86.1121 150.125 87.5625C150.125 89.0129 150.701 90.4039 151.727 91.4295C152.752 92.4551 154.143 93.0312 155.594 93.0312H166.531C167.982 93.0312 169.373 92.4551 170.398 91.4295C171.424 90.4039 172 89.0129 172 87.5625C172 86.1121 171.424 84.7211 170.398 83.6955C169.373 82.6699 167.982 82.0938 166.531 82.0938H155.594Z" fill="#FAFF00"/>
</g>
<defs>
<filter id="filter0_d_15_127" x="0.975193" y="0" width="183.025" height="183" filterUnits="userSpaceOnUse" color-interpolation-filters="sRGB">
<feFlood flood-opacity="0" result="BackgroundImageFix"/>
<feColorMatrix in="SourceAlpha" type="matrix" values="0 0 0 0 0 0 0 0 0 0 0 0 0 0 0 0 0 0 127 0" result="hardAlpha"/>
<feOffset dy="4"/>
<feGaussianBlur stdDeviation="2"/>
<feComposite in2="hardAlpha" operator="out"/>
<feColorMatrix type="matrix" values="0 0 0 0 0 0 0 0 0 0 0 0 0 0 0 0 0 0 0.25 0"/>
<feBlend mode="normal" in2="BackgroundImageFix" result="effect1_dropShadow_15_127"/>
<feBlend mode="normal" in="SourceGraphic" in2="effect1_dropShadow_15_127" result="shape"/>
</filter>
</defs>
</svg>
