<svg width="82" height="40" viewBox="0 0 82 40" fill="none" xmlns="http://www.w3.org/2000/svg">
<g clip-path="url(#clip0_7_15)">
<path d="M73.875 16.2261C73.9543 16.3224 74.0029 16.4404 74.0145 16.5646C74.0261 16.6889 74.0001 16.8138 73.94 16.9232C73.4703 17.7856 73.2249 18.7524 73.2266 19.7344C73.2266 23.0015 75.89 25.647 79.1725 25.647C79.6007 25.647 80.0175 25.6023 80.4181 25.517C80.5409 25.4904 80.6688 25.5006 80.7858 25.5462C80.9028 25.5919 81.0038 25.671 81.0762 25.7737C81.1526 25.8805 81.1915 26.0096 81.1869 26.1408C81.1824 26.272 81.1346 26.3981 81.051 26.4993C80.4137 27.2821 79.6098 27.9128 78.6979 28.3455C77.7859 28.7781 76.7889 29.0018 75.7795 29.0002C72.0339 29.0002 69 25.9826 69 22.2646C69 19.4663 70.7176 17.0662 73.1632 16.0489C73.2851 15.9974 73.4203 15.9869 73.5487 16.0188C73.677 16.0508 73.7915 16.1235 73.875 16.2261ZM72.9471 17.0654C72.0067 17.5698 71.2206 18.3196 70.6722 19.235C70.1239 20.1505 69.8338 21.1974 69.8328 22.2646C69.8328 25.5308 72.497 28.1763 75.7795 28.1763C76.5655 28.1777 77.3441 28.0231 78.07 27.7216C78.7959 27.4201 79.4548 26.9776 80.0086 26.4197C79.7347 26.4538 79.4561 26.4709 79.1725 26.4709C75.4269 26.4709 72.3938 23.4532 72.3938 19.7352C72.3938 18.7871 72.5904 17.8844 72.9471 17.0654Z" fill="#5DA5D8"/>
</g>
<path d="M0.776 16L5.72 4.8H8.84L13.8 16H10.504L6.632 6.352H7.88L4.008 16H0.776ZM3.48 13.824L4.296 11.488H9.768L10.584 13.824H3.48ZM20.0101 16.144C19.2741 16.144 18.6448 15.984 18.1221 15.664C17.5995 15.3333 17.1995 14.8427 16.9221 14.192C16.6555 13.5307 16.5221 12.688 16.5221 11.664C16.5221 10.6293 16.6501 9.78667 16.9061 9.136C17.1621 8.47467 17.5461 7.984 18.0581 7.664C18.5808 7.344 19.2315 7.184 20.0101 7.184C20.7995 7.184 21.5141 7.37067 22.1541 7.744C22.8048 8.10667 23.3168 8.624 23.6901 9.296C24.0741 9.95733 24.2661 10.7467 24.2661 11.664C24.2661 12.5813 24.0741 13.376 23.6901 14.048C23.3168 14.72 22.8048 15.2373 22.1541 15.6C21.5141 15.9627 20.7995 16.144 20.0101 16.144ZM14.5541 19.104V7.328H17.4501V8.8L17.4341 11.664L17.5941 14.544V19.104H14.5541ZM19.3701 13.728C19.7115 13.728 20.0155 13.648 20.2821 13.488C20.5595 13.328 20.7781 13.0933 20.9381 12.784C21.1088 12.4747 21.1941 12.1013 21.1941 11.664C21.1941 11.2267 21.1088 10.8533 20.9381 10.544C20.7781 10.2347 20.5595 10 20.2821 9.84C20.0155 9.68 19.7115 9.6 19.3701 9.6C19.0288 9.6 18.7195 9.68 18.4421 9.84C18.1755 10 17.9568 10.2347 17.7861 10.544C17.6261 10.8533 17.5461 11.2267 17.5461 11.664C17.5461 12.1013 17.6261 12.4747 17.7861 12.784C17.9568 13.0933 18.1755 13.328 18.4421 13.488C18.7195 13.648 19.0288 13.728 19.3701 13.728ZM31.1351 16.144C30.3991 16.144 29.7698 15.984 29.2471 15.664C28.7245 15.3333 28.3245 14.8427 28.0471 14.192C27.7805 13.5307 27.6471 12.688 27.6471 11.664C27.6471 10.6293 27.7751 9.78667 28.0311 9.136C28.2871 8.47467 28.6711 7.984 29.1831 7.664C29.7058 7.344 30.3565 7.184 31.1351 7.184C31.9245 7.184 32.6391 7.37067 33.2791 7.744C33.9298 8.10667 34.4418 8.624 34.8151 9.296C35.1991 9.95733 35.3911 10.7467 35.3911 11.664C35.3911 12.5813 35.1991 13.376 34.8151 14.048C34.4418 14.72 33.9298 15.2373 33.2791 15.6C32.6391 15.9627 31.9245 16.144 31.1351 16.144ZM25.6791 19.104V7.328H28.5751V8.8L28.5591 11.664L28.7191 14.544V19.104H25.6791ZM30.4951 13.728C30.8365 13.728 31.1405 13.648 31.4071 13.488C31.6845 13.328 31.9031 13.0933 32.0631 12.784C32.2338 12.4747 32.3191 12.1013 32.3191 11.664C32.3191 11.2267 32.2338 10.8533 32.0631 10.544C31.9031 10.2347 31.6845 10 31.4071 9.84C31.1405 9.68 30.8365 9.6 30.4951 9.6C30.1538 9.6 29.8445 9.68 29.5671 9.84C29.3005 10 29.0818 10.2347 28.9111 10.544C28.7511 10.8533 28.6711 11.2267 28.6711 11.664C28.6711 12.1013 28.7511 12.4747 28.9111 12.784C29.0818 13.0933 29.3005 13.328 29.5671 13.488C29.8445 13.648 30.1538 13.728 30.4951 13.728ZM6.056 36.224C5.13867 36.224 4.25333 36.112 3.4 35.888C2.55733 35.6533 1.86933 35.3547 1.336 34.992L2.376 32.656C2.87733 32.976 3.45333 33.2427 4.104 33.456C4.76533 33.6587 5.42133 33.76 6.072 33.76C6.50933 33.76 6.86133 33.7227 7.128 33.648C7.39467 33.5627 7.58667 33.456 7.704 33.328C7.832 33.1893 7.896 33.0293 7.896 32.848C7.896 32.592 7.77867 32.3893 7.544 32.24C7.30933 32.0907 7.00533 31.968 6.632 31.872C6.25867 31.776 5.84267 31.68 5.384 31.584C4.936 31.488 4.48267 31.3653 4.024 31.216C3.576 31.0667 3.16533 30.8747 2.792 30.64C2.41867 30.3947 2.11467 30.08 1.88 29.696C1.64533 29.3013 1.528 28.8053 1.528 28.208C1.528 27.536 1.70933 26.928 2.072 26.384C2.44533 25.84 3 25.4027 3.736 25.072C4.472 24.7413 5.38933 24.576 6.488 24.576C7.224 24.576 7.944 24.6613 8.648 24.832C9.36267 24.992 9.99733 25.232 10.552 25.552L9.576 27.904C9.04267 27.616 8.51467 27.4027 7.992 27.264C7.46933 27.1147 6.96267 27.04 6.472 27.04C6.03467 27.04 5.68267 27.088 5.416 27.184C5.14933 27.2693 4.95733 27.3867 4.84 27.536C4.72267 27.6853 4.664 27.856 4.664 28.048C4.664 28.2933 4.776 28.4907 5 28.64C5.23467 28.7787 5.53867 28.896 5.912 28.992C6.296 29.0773 6.712 29.168 7.16 29.264C7.61867 29.36 8.072 29.4827 8.52 29.632C8.97867 29.7707 9.39467 29.9627 9.768 30.208C10.1413 30.4427 10.44 30.7573 10.664 31.152C10.8987 31.536 11.016 32.0213 11.016 32.608C11.016 33.2587 10.8293 33.8613 10.456 34.416C10.0933 34.96 9.544 35.3973 8.808 35.728C8.08267 36.0587 7.16533 36.224 6.056 36.224ZM15.9834 36.144C15.2794 36.144 14.6447 36.0053 14.0794 35.728C13.5247 35.4507 13.0874 35.0187 12.7674 34.432C12.458 33.8347 12.3034 33.0827 12.3034 32.176V27.328H15.3434V31.68C15.3434 32.352 15.466 32.832 15.7114 33.12C15.9674 33.408 16.3247 33.552 16.7834 33.552C17.082 33.552 17.354 33.4827 17.5994 33.344C17.8447 33.2053 18.042 32.9867 18.1914 32.688C18.3407 32.3787 18.4154 31.984 18.4154 31.504V27.328H21.4554V36H18.5594V33.552L19.1194 34.24C18.8207 34.88 18.3887 35.36 17.8234 35.68C17.258 35.9893 16.6447 36.144 15.9834 36.144ZM29.0615 27.184C29.7335 27.184 30.3415 27.3227 30.8855 27.6C31.4295 27.8667 31.8562 28.2827 32.1655 28.848C32.4855 29.4133 32.6455 30.144 32.6455 31.04V36H29.6055V31.536C29.6055 30.9173 29.4775 30.4693 29.2215 30.192C28.9762 29.904 28.6295 29.76 28.1815 29.76C27.8615 29.76 27.5682 29.8347 27.3015 29.984C27.0348 30.1227 26.8268 30.3413 26.6775 30.64C26.5282 30.9387 26.4535 31.328 26.4535 31.808V36H23.4135V27.328H26.3095V29.792L25.7495 29.072C26.0802 28.4427 26.5335 27.9733 27.1095 27.664C27.6855 27.344 28.3362 27.184 29.0615 27.184ZM34.6981 36V24.8H37.3061L41.9461 32.416H40.5701L45.0821 24.8H47.6901L47.7221 36H44.8101L44.7781 29.232H45.2741L41.8981 34.896H40.4901L37.0181 29.232H37.6261V36H34.6981ZM54.1718 36.144C53.2224 36.144 52.3798 35.952 51.6438 35.568C50.9078 35.184 50.3264 34.656 49.8997 33.984C49.4838 33.3013 49.2758 32.5227 49.2758 31.648C49.2758 30.7733 49.4838 30 49.8997 29.328C50.3264 28.656 50.9078 28.1333 51.6438 27.76C52.3798 27.376 53.2224 27.184 54.1718 27.184C55.1211 27.184 55.9638 27.376 56.6998 27.76C57.4464 28.1333 58.0278 28.656 58.4438 29.328C58.8598 30 59.0678 30.7733 59.0678 31.648C59.0678 32.5227 58.8598 33.3013 58.4438 33.984C58.0278 34.656 57.4464 35.184 56.6998 35.568C55.9638 35.952 55.1211 36.144 54.1718 36.144ZM54.1718 33.728C54.5238 33.728 54.8331 33.648 55.0998 33.488C55.3771 33.328 55.5958 33.0933 55.7558 32.784C55.9158 32.464 55.9958 32.0853 55.9958 31.648C55.9958 31.2107 55.9158 30.8427 55.7558 30.544C55.5958 30.2347 55.3771 30 55.0998 29.84C54.8331 29.68 54.5238 29.6 54.1718 29.6C53.8304 29.6 53.5211 29.68 53.2438 29.84C52.9771 30 52.7584 30.2347 52.5878 30.544C52.4278 30.8427 52.3478 31.2107 52.3478 31.648C52.3478 32.0853 52.4278 32.464 52.5878 32.784C52.7584 33.0933 52.9771 33.328 53.2438 33.488C53.5211 33.648 53.8304 33.728 54.1718 33.728ZM64.828 36.144C63.8787 36.144 63.036 35.952 62.3 35.568C61.564 35.184 60.9827 34.656 60.556 33.984C60.14 33.3013 59.932 32.5227 59.932 31.648C59.932 30.7733 60.14 30 60.556 29.328C60.9827 28.656 61.564 28.1333 62.3 27.76C63.036 27.376 63.8787 27.184 64.828 27.184C65.7773 27.184 66.62 27.376 67.356 27.76C68.1027 28.1333 68.684 28.656 69.1 29.328C69.516 30 69.724 30.7733 69.724 31.648C69.724 32.5227 69.516 33.3013 69.1 33.984C68.684 34.656 68.1027 35.184 67.356 35.568C66.62 35.952 65.7773 36.144 64.828 36.144ZM64.828 33.728C65.18 33.728 65.4893 33.648 65.756 33.488C66.0333 33.328 66.252 33.0933 66.412 32.784C66.572 32.464 66.652 32.0853 66.652 31.648C66.652 31.2107 66.572 30.8427 66.412 30.544C66.252 30.2347 66.0333 30 65.756 29.84C65.4893 29.68 65.18 29.6 64.828 29.6C64.4867 29.6 64.1773 29.68 63.9 29.84C63.6333 30 63.4147 30.2347 63.244 30.544C63.084 30.8427 63.004 31.2107 63.004 31.648C63.004 32.0853 63.084 32.464 63.244 32.784C63.4147 33.0933 63.6333 33.328 63.9 33.488C64.1773 33.648 64.4867 33.728 64.828 33.728ZM76.7803 27.184C77.4523 27.184 78.0603 27.3227 78.6042 27.6C79.1483 27.8667 79.5749 28.2827 79.8843 28.848C80.2043 29.4133 80.3643 30.144 80.3643 31.04V36H77.3243V31.536C77.3243 30.9173 77.1963 30.4693 76.9403 30.192C76.6949 29.904 76.3483 29.76 75.9003 29.76C75.5803 29.76 75.2869 29.8347 75.0203 29.984C74.7536 30.1227 74.5456 30.3413 74.3963 30.64C74.2469 30.9387 74.1723 31.328 74.1723 31.808V36H71.1323V27.328H74.0283V29.792L73.4683 29.072C73.7989 28.4427 74.2523 27.9733 74.8283 27.664C75.4043 27.344 76.0549 27.184 76.7803 27.184Z" fill="white"/>
<g clip-path="url(#clip1_7_15)">
<path d="M63.7693 16.6557C63.8846 16.4976 64.1343 16.5772 64.1369 16.7728L64.1518 17.9211C64.1552 18.1735 64.2174 18.4217 64.3333 18.646C64.4493 18.8703 64.6159 19.0644 64.8199 19.2131L65.7474 19.8894C65.9055 20.0047 65.8259 20.2545 65.6303 20.2571L64.482 20.272C64.2295 20.2754 63.9813 20.3375 63.7571 20.4535C63.5328 20.5695 63.3386 20.7361 63.1899 20.9401L62.5136 21.8676C62.4886 21.9023 62.4532 21.9281 62.4126 21.9415C62.372 21.9549 62.3281 21.9551 62.2874 21.9421C62.2466 21.9292 62.211 21.9036 62.1856 21.8692C62.1602 21.8348 62.1463 21.7932 62.146 21.7504L62.1311 20.6021C62.1277 20.3498 62.0656 20.1016 61.9498 19.8774C61.8339 19.6532 61.6674 19.459 61.4635 19.3103L60.5355 18.6338C60.5008 18.6088 60.4749 18.5734 60.4615 18.5328C60.4482 18.4921 60.4479 18.4483 60.4609 18.4075C60.4739 18.3668 60.4994 18.3312 60.5339 18.3058C60.5683 18.2804 60.6099 18.2665 60.6526 18.2661L61.8009 18.2512C62.0533 18.2479 62.3014 18.1858 62.5257 18.0699C62.7499 17.9541 62.9441 17.7876 63.0928 17.5837L63.7693 16.6557ZM62.5696 13.2632C62.5847 13.2424 62.6059 13.2269 62.6303 13.2189C62.6547 13.2109 62.681 13.2108 62.7054 13.2186C62.7299 13.2264 62.7512 13.2417 62.7665 13.2623C62.7818 13.283 62.7901 13.3079 62.7904 13.3335L62.7994 14.0224C62.8037 14.3296 62.9519 14.6165 63.2 14.7977L63.7567 15.2035C63.7775 15.2186 63.793 15.2398 63.801 15.2642C63.809 15.2886 63.8091 15.3149 63.8013 15.3393C63.7935 15.3638 63.7782 15.3851 63.7576 15.4004C63.7369 15.4157 63.712 15.424 63.6864 15.4243L62.9975 15.4333C62.846 15.4353 62.6971 15.4725 62.5626 15.5421C62.428 15.6116 62.3115 15.7115 62.2222 15.8339L61.8164 16.3906C61.8013 16.4114 61.7801 16.4268 61.7557 16.4348C61.7313 16.4428 61.705 16.443 61.6806 16.4352C61.6561 16.4274 61.6347 16.4121 61.6195 16.3914C61.6042 16.3708 61.5959 16.3459 61.5956 16.3202L61.5866 15.6314C61.5846 15.4799 61.5473 15.331 61.4778 15.1964C61.4083 15.0619 61.3084 14.9454 61.186 14.8561L60.6293 14.4503C60.6085 14.4352 60.593 14.414 60.585 14.3896C60.577 14.3652 60.5769 14.3389 60.5847 14.3145C60.5925 14.29 60.6078 14.2686 60.6284 14.2534C60.6491 14.2381 60.674 14.2297 60.6996 14.2295L61.3885 14.2205C61.54 14.2185 61.6889 14.1812 61.8234 14.1117C61.958 14.0422 62.0745 13.9422 62.1638 13.8199L62.5696 13.2632ZM66.5374 13.9081C66.5475 13.8945 66.5617 13.8844 66.5778 13.8793C66.594 13.8741 66.6113 13.8741 66.6275 13.8792C66.6436 13.8844 66.6578 13.8944 66.6679 13.908C66.6781 13.9215 66.6838 13.9379 66.6842 13.9549L66.6903 14.4138C66.6929 14.6188 66.7919 14.8104 66.9577 14.9311L67.3284 15.2015C67.342 15.2117 67.3521 15.2258 67.3573 15.242C67.3624 15.2581 67.3624 15.2755 67.3573 15.2916C67.3522 15.3078 67.3421 15.3219 67.3285 15.3321C67.315 15.3423 67.2986 15.348 67.2816 15.3484L66.8228 15.3545C66.7217 15.3558 66.6223 15.3806 66.5325 15.427C66.4427 15.4734 66.365 15.5401 66.3054 15.6218L66.035 15.9926C66.0248 16.0062 66.0107 16.0162 65.9946 16.0214C65.9784 16.0266 65.9611 16.0266 65.9449 16.0214C65.9288 16.0163 65.9146 16.0062 65.9044 15.9927C65.8943 15.9791 65.8886 15.9627 65.8881 15.9458L65.882 15.4869C65.8808 15.3858 65.8559 15.2864 65.8095 15.1966C65.7631 15.1068 65.6964 15.0291 65.6147 14.9696L65.2445 14.6993C65.2309 14.6892 65.2208 14.675 65.2157 14.6589C65.2105 14.6427 65.2105 14.6254 65.2156 14.6092C65.2208 14.5931 65.2308 14.5789 65.2444 14.5688C65.2579 14.5586 65.2743 14.5529 65.2913 14.5525L65.7502 14.5464C65.9552 14.5438 66.1468 14.4448 66.2675 14.279L66.5372 13.9086L66.5374 13.9081Z" fill="#FDFFAE"/>
</g>
<defs>
<clipPath id="clip0_7_15">
<rect width="13" height="13" fill="white" transform="translate(69 16)"/>
</clipPath>
<clipPath id="clip1_7_15">
<rect width="9" height="9" fill="white" transform="translate(60.7322 12) rotate(17.6729)"/>
</clipPath>
</defs>
</svg>
